<?xml version="1.0" encoding="utf-8"?>
<!-- Generator: Adobe Illustrator 19.2.1, SVG Export Plug-In . SVG Version: 6.00 Build 0)  -->
<svg version="1.1" id="layer" xmlns="http://www.w3.org/2000/svg" xmlns:xlink="http://www.w3.org/1999/xlink" x="0px" y="0px"
	 viewBox="0 0 652 652" style="enable-background:new 0 0 652 652;" xml:space="preserve">
<style type="text/css">
	.st0{fill:#231815;}
	.st1{fill:#5DBBE8;}
</style>
<g>
	<path class="st0" d="M39.4,445.1H21.3V254.5c15.2-4.7,30.2-7.1,44.9-7.1c10.7,0,20.4,1.7,29.2,5c8.7,3.3,16.2,8,22.4,13.9
		c6.2,6,11,13,14.3,21.3c3.3,8.2,5,17.2,5,26.8c0,11.7-2,21.8-6,30.2c-4,8.4-9.3,15.3-15.9,20.7c-6.6,5.4-14,9.4-22.4,11.9
		c-8.4,2.5-17,3.8-25.7,3.8c-4.7,0-9.4-0.4-13.9-1c-4.6-0.7-9.1-1.7-13.7-2.9V445.1z M116.4,314.1c0-15.2-4.3-27.5-12.7-36.9
		c-8.5-9.4-20.4-14-35.8-14c-4.9,0-9.7,0.3-14.5,0.9c-4.7,0.6-9.4,1.7-13.9,3.3v92.9c4.2,1.4,8.5,2.6,13,3.6c4.5,1,8.8,1.4,13,1.4
		c15.6,0,28-4.4,37.2-13.3C111.8,343.2,116.4,330.6,116.4,314.1"/>
	<rect x="173.9" y="196.2" class="st0" width="18.4" height="183.8"/>
	<path class="st0" d="M342.4,360.8c-6.1,6.7-13.2,11.7-21.3,15.1c-8.1,3.4-17.8,5.1-29.2,5.1c-10.5,0-19.7-1.8-27.6-5.4
		c-7.9-3.6-14.4-8.4-19.7-14.6c-5.2-6.1-9.2-13.1-11.8-21c-2.6-7.9-3.9-16.2-3.9-24.9c0-11.6,1.6-21.6,4.7-30.1
		c3.2-8.5,7.4-15.5,12.9-21.1c5.4-5.6,11.7-9.8,18.9-12.5c7.2-2.7,14.8-4.1,22.8-4.1c19.3,0,33.8,5.9,43.6,17.7
		c9.8,11.8,14.5,29,14.2,51.6h-98.5c0.5,14.9,4.8,26.7,12.9,35.5c8.1,8.8,19,13.1,32.8,13.1c7.7,0,14.7-1.3,21-3.8
		c6.3-2.5,12-6.6,17.1-12.2L342.4,360.8z M327.7,301.2c0-5.4-0.8-10.5-2.5-15.2c-1.7-4.7-4-8.7-7.1-12.1c-3.1-3.3-7.1-6-11.9-8
		c-4.9-2-10.6-3-17.1-3c-6.7,0-12.4,1-17.2,3c-4.8,2-8.6,4.6-11.4,7.8c-2.8,3.1-5.4,7.1-7.8,11.9c-2.4,4.8-3.9,10-4.6,15.6H327.7z"
		/>
	<path class="st0" d="M466.4,279.7c-4.6-5.8-9.5-10-14.9-12.7c-5.3-2.7-11.6-4.1-19-4.1c-9.4,0-15.9,1.7-19.7,5
		c-3.8,3.3-5.6,7.5-5.6,12.6c0,3.5,0.9,6.5,2.6,8.9c1.7,2.4,4,4.6,6.9,6.3c2.8,1.8,6.1,3.3,9.9,4.6c3.8,1.3,7.7,2.6,11.7,3.8
		c4.9,1.6,9.9,3.3,14.8,5.1c5,1.8,9.5,4.2,13.6,7.2c4.1,3,7.5,6.6,10,10.9c2.6,4.3,3.9,9.7,3.9,16.1c0,6-1.3,11.3-3.9,16
		c-2.6,4.7-6.1,8.7-10.5,11.9c-4.4,3.3-9.6,5.7-15.5,7.4c-6,1.7-12.3,2.5-19.1,2.5c-10.4,0-19.7-1.7-27.8-5.1
		c-8.1-3.4-15.7-9.1-22.8-16.9l14.3-12.6c9.5,12.2,21.9,18.4,37.1,18.4c9.9,0,17.2-1.8,22-5.5c4.8-3.7,7.1-8.2,7.1-13.4
		c0-4-0.9-7.4-2.6-10.1c-1.7-2.7-4.1-5-7.1-7c-3-1.9-6.5-3.5-10.5-4.9c-4-1.3-8.1-2.6-12.5-3.8c-5-1.4-9.9-3-14.7-4.7
		c-4.9-1.7-9.2-4-13.1-6.7c-3.9-2.7-7-6.2-9.5-10.4c-2.5-4.2-3.7-9.5-3.7-16c0-11.6,4.2-20.5,12.7-26.8c8.4-6.3,19.3-9.5,32.7-9.5
		c9.5,0,18,1.6,25.4,4.7c7.4,3.2,14.5,8.7,21.3,16.5L466.7,280L466.4,279.7z"/>
	<path class="st0" d="M515.2,196.5h18.4V380h-18.4V196.5z M533.6,312.3l63-63.6h24.7l-64.6,63L621,380h-25.5L533.6,312.3z"/>
	<rect x="127.2" y="427.8" class="st1" width="110.6" height="17.3"/>
</g>
</svg>
